<?xml version="1.0" encoding="UTF-8"?>
<svg id="Layer_1" data-name="Layer 1" xmlns="http://www.w3.org/2000/svg" viewBox="0 0 786.66 786.66">
  <defs>
    <style>
      .cls-1 {
        fill: #dbd9d9;
      }
    </style>
  </defs>
  <path class="cls-1" d="m432.58,343.77c-51.02,0-104.92,10.92-104.92,71.07,0,30.47,15.78,51.12,42.88,51.12,19.85,0,37.62-12.21,48.84-32.06,13.9-24.42,13.2-47.35,13.2-74.84v-15.29Z"/>
  <path class="cls-1" d="m393.33,0C176.1,0,0,176.1,0,393.33s176.1,393.33,393.33,393.33,393.33-176.1,393.33-393.33S610.56,0,393.33,0Zm30.72,226.93c-8.64-13-25.11-18.36-39.6-18.36-26.9,0-50.92,13.8-56.78,42.38-1.19,6.35-5.86,12.61-12.21,12.9l-68.49-7.34c-5.76-1.29-12.11-5.96-10.52-14.79,15.78-82.98,90.73-108,157.83-108,34.34,0,79.21,9.13,106.31,35.14,34.34,32.06,31.07,74.84,31.07,121.4v109.98c0,33.06,13.7,47.54,26.6,65.41,4.57,6.35,5.56,14-.2,18.76-14.39,12.01-40,34.34-54.1,46.85l-.2-.2h0c-4.66,4.17-11.41,4.47-16.67,1.69-23.43-19.46-27.6-28.49-40.5-47.05-38.71,39.51-66.11,51.32-116.34,51.32-59.36,0-105.61-36.63-105.61-109.98,0-57.28,31.07-96.28,75.24-115.34,38.32-16.87,91.82-19.85,132.71-24.52v-9.13c0-16.78,1.29-36.63-8.54-51.12Zm207.43,353.02c-64.56,47.59-158.14,72.98-238.71,72.98-112.97,0-214.68-41.79-291.62-111.28-6.04-5.47-.63-12.91,6.63-8.66,83.04,48.31,185.71,77.38,291.77,77.38,71.53,0,150.21-14.8,222.56-45.51,10.93-4.64,20.07,7.16,9.38,15.09Zm17.89,46.72c-5.32,4.45-10.4,2.08-8.03-3.82,7.79-19.44,25.25-63.01,16.98-73.61h0c-8.22-10.54-54.55-4.98-75.35-2.52-6.34.77-7.3-4.74-1.6-8.7,36.9-25.97,97.45-18.47,104.51-9.77,7.06,8.75-1.84,69.45-36.51,98.42Z"/>
</svg>