<?xml version="1.0" encoding="utf-8"?>
<!-- Generator: Adobe Illustrator 27.3.1, SVG Export Plug-In . SVG Version: 6.00 Build 0)  -->
<svg version="1.1" id="Layer_1" xmlns="http://www.w3.org/2000/svg" xmlns:xlink="http://www.w3.org/1999/xlink" x="0px" y="0px"
	 viewBox="0 0 1113.2 1113.2" style="enable-background:new 0 0 1113.2 1113.2;" xml:space="preserve">
<style type="text/css">
	.st0{fill:#DBD9D9;}
	.st1{display:none;fill:none;stroke:#DBD9D9;stroke-width:50;stroke-miterlimit:10;}
</style>
<path class="st0" d="M556.6,0C249.2,0,0,249.2,0,556.6s249.2,556.6,556.6,556.6s556.6-249.2,556.6-556.6S864,0,556.6,0z
	 M896.8,424.3L553.6,833.8c-19.9,21-47.5,32.9-76.4,32.9c-25.8,0.3-50.7-9.1-69.7-26.4c-58.6-54.8-130.9-122.4-191.9-174V666
	C126,569.7,263.8,426,363.3,516.9c35.1,32,73.6,66.2,109,98l273.1-335.6C840.6,181,990.7,325.4,896.8,424.3L896.8,424.3z"/>
<circle class="st1" cx="556.6" cy="556.6" r="506.6"/>
</svg>
