<?xml version="1.0" encoding="UTF-8"?>
<svg id="Layer_1" data-name="Layer 1" xmlns="http://www.w3.org/2000/svg" viewBox="0 0 508.02 508.02">
  <defs>
    <style>
      .cls-1 {
        fill: #dbd9d9;
      }
    </style>
  </defs>
  <path class="cls-1" d="m254.01,0C113.72,0,0,113.72,0,254.01s113.72,254.01,254.01,254.01,254.01-113.72,254.01-254.01S394.3,0,254.01,0Zm85.06,91.06c20.37,0,36.89,16.52,36.89,36.89s-16.52,36.89-36.89,36.89-36.89-16.52-36.89-36.89,16.52-36.89,36.89-36.89Zm67.24,325.89h-134.06v-55.34h28.65v-116.83h-92.19v116.83h33.62v55.39H103.8v-55.34h28.69v-116.83h-30.75v-55.34h30.75v-9.49c0-74.61,65.18-84.44,100.44-84.44,9.05-.03,18.08.52,27.06,1.63v59.86s-5.75-1.24-18.45-1.24c-11.07,0-32.8.41-32.8,22.14v11.07h168.86v172.58h28.71v55.34Z"/>
</svg>