<?xml version="1.0" encoding="UTF-8"?>
<svg id="Layer_1" data-name="Layer 1" xmlns="http://www.w3.org/2000/svg" viewBox="0 0 546.84 533.33">
  <defs>
    <style>
      .cls-1 {
        fill: #dbd9d9;
        fill-rule: evenodd;
      }
    </style>
  </defs>
  <path class="cls-1" d="m273.42,0C122.43,0,0,122.41,0,273.42c0,120.8,78.34,223.29,186.98,259.44,13.66,2.53,18.68-5.93,18.68-13.15,0-6.51-.25-28.06-.37-50.9-76.06,16.54-92.12-32.26-92.12-32.26-12.44-31.6-30.36-40.01-30.36-40.01-24.81-16.97,1.87-16.62,1.87-16.62,27.46,1.93,41.91,28.18,41.91,28.18,24.39,41.8,63.96,29.71,79.57,22.72,2.46-17.67,9.54-29.73,17.36-36.56-60.73-6.91-124.57-30.36-124.57-135.12,0-29.85,10.68-54.24,28.17-73.38-2.84-6.89-12.2-34.7,2.65-72.36,0,0,22.96-7.35,75.2,28.03,21.81-6.06,45.2-9.1,68.44-9.2,23.24.1,46.64,3.15,68.49,9.2,52.19-35.38,75.11-28.03,75.11-28.03,14.88,37.66,5.52,65.47,2.68,72.36,17.53,19.15,28.13,43.54,28.13,73.38,0,105.02-63.96,128.14-124.85,134.91,9.81,8.48,18.55,25.12,18.55,50.63,0,36.58-.31,66.03-.31,75.03,0,7.28,4.92,15.81,18.78,13.12,108.58-36.19,186.83-138.65,186.83-259.41C546.84,122.4,424.42,0,273.42,0"/>
</svg>