<?xml version="1.0" encoding="UTF-8"?>
<svg id="Layer_1" data-name="Layer 1" xmlns="http://www.w3.org/2000/svg" viewBox="0 0 922.51 922.51">
  <defs>
    <style>
      .cls-1 {
        fill: #dbd9d9;
      }
    </style>
  </defs>
  <path class="cls-1" d="m461.26,0C206.51,0,0,206.51,0,461.26s206.51,461.26,461.26,461.26,461.26-206.51,461.26-461.26S716,0,461.26,0Zm-170.75,695.49h-99.35c-23.52,0-42.58-19.05-42.58-42.58v-305.14l141.93,106.44v241.27Zm483.42-42.58c0,23.52-19.05,42.58-42.58,42.58h-99.35v-241.27l-170.31,127.73-170.31-127.73-141.93-106.44v-56.77c0-52.62,60.07-82.67,102.19-51.09l39.74,29.8,170.31,127.73,169.43-127.07v-.66l39.74-29.8c42.12-31.58,102.19-1.53,102.19,51.09v56.77l-141.05,105.79v.66l141.93-106.44v305.14Z"/>
</svg>