<?xml version="1.0" encoding="UTF-8"?>
<svg id="Layer_1" data-name="Layer 1" xmlns="http://www.w3.org/2000/svg" viewBox="0 0 120 120">
  <defs>
    <style>
      .cls-1 {
        fill: #dbd9d9;
        fill-rule: evenodd;
      }
    </style>
  </defs>
  <path class="cls-1" d="m60,0c33.14,0,60,26.86,60,60s-26.86,60-60,60S0,93.14,0,60,26.86,0,60,0Zm17.5,64.84c-6.46,0-11.82,4.5-13.22,10.52-3.27-1.4-6.3-1.01-8.56-.04-1.44-6.01-6.81-10.48-13.22-10.48-7.51,0-13.61,6.09-13.61,13.58s6.1,13.58,13.61,13.58,12.95-5.51,13.49-12.5c1.17-.82,4.24-2.33,8.01.08.62,6.95,6.38,12.42,13.49,12.42,7.51,0,13.61-6.09,13.61-13.58s-6.11-13.58-13.61-13.58Zm-35,3.88c5.37,0,9.72,4.35,9.72,9.7s-4.35,9.7-9.72,9.7-9.72-4.35-9.72-9.7,4.35-9.7,9.72-9.7h0Zm35,0c5.37,0,9.72,4.35,9.72,9.7s-4.36,9.7-9.72,9.7-9.72-4.35-9.72-9.7,4.36-9.7,9.72-9.7h0Zm17.5-11.72H25v4h70v-4Zm-22.13-27.66c-.8-1.82-2.87-2.78-4.78-2.14l-8.09,2.72-8.13-2.72-.19-.06c-1.93-.53-3.95.51-4.67,2.39l-8.87,23.47h43.71l-8.91-23.47-.08-.19Z"/>
</svg>