<?xml version="1.0" encoding="UTF-8"?>
<svg id="Layer_1" data-name="Layer 1" xmlns="http://www.w3.org/2000/svg" viewBox="0 0 1113.2 1113.2">
  <defs>
    <style>
      .cls-1 {
        fill: #dbd9d9;
      }
    </style>
  </defs>
  <path class="cls-1" d="m556.6,0C249.2,0,0,249.2,0,556.6s249.2,556.6,556.6,556.6,556.6-249.2,556.6-556.6S863.99,0,556.6,0Zm281.81,875.28c-69.54,64.2-164.69,101.64-278.18,101.64-164.31,0-306.07-94.38-375.24-231.56v-.38c-28.66-56.55-45.09-120.37-45.09-188.38s16.43-131.83,45.09-188.38c69.16-137.56,210.93-231.94,375.24-231.94,113.49,0,208.25,41.65,281.24,109.67l-120.37,120.37c-43.94-41.27-98.97-62.67-160.87-62.67-109.28,0-202.14,73.75-235.38,173.1-8.41,25.22-13.37,51.97-13.37,79.86s4.97,54.64,13.37,79.86c0,0-.48.37-.5.38h.5c33.24,99.35,126.1,173.1,235.38,173.1,56.55,0,104.32-15.28,141.76-40.5,44.71-29.8,74.51-74.13,84.45-126.48h-226.21v-162.78h395.87c4.97,27.51,7.64,56.17,7.64,85.98,0,128.01-45.85,235.76-125.33,309.13Z"/>
</svg>