<?xml version="1.0" encoding="UTF-8"?>
<svg id="Layer_1" data-name="Layer 1" xmlns="http://www.w3.org/2000/svg" viewBox="0 0 786.66 786.66">
  <defs>
    <style>
      .cls-1 {
        fill: #dbd9d9;
      }
    </style>
  </defs>
  <path class="cls-1" d="m393.33,0C176.1,0,0,176.1,0,393.33s176.1,393.33,393.33,393.33,393.33-176.1,393.33-393.33S610.56,0,393.33,0Zm265.06,503.28c-1.29,28.38-5.8,47.77-12.39,64.73-6.82,17.53-15.94,32.4-30.76,47.23s-29.69,23.95-47.23,30.76c-16.96,6.59-36.35,11.1-64.73,12.39-28.45,1.29-37.52,1.6-109.95,1.6s-81.51-.3-109.95-1.6c-28.38-1.29-47.77-5.8-64.73-12.39-17.53-6.82-32.4-15.94-47.23-30.76s-23.95-29.69-30.76-47.23c-6.6-16.96-11.1-36.35-12.4-64.73-1.29-28.45-1.6-37.52-1.6-109.95s.3-81.51,1.6-109.95c1.3-28.38,5.81-47.77,12.4-64.73,6.82-17.53,15.93-32.41,30.76-47.23,14.82-14.83,29.69-23.95,47.23-30.76,16.96-6.59,36.35-11.1,64.73-12.39,28.45-1.29,37.53-1.6,109.95-1.6h0,0c72.43,0,81.51.3,109.95,1.6,28.38,1.29,47.77,5.8,64.73,12.39,17.53,6.82,32.4,15.94,47.23,30.76,14.83,14.82,23.95,29.69,30.76,47.23,6.59,16.96,11.1,36.35,12.39,64.73,1.29,28.45,1.6,37.52,1.6,109.95s-.3,81.51-1.6,109.95Z"/>
  <g>
    <circle class="cls-1" cx="393.33" cy="393.34" r="88.89" transform="translate(-162.93 393.33) rotate(-45)"/>
    <path class="cls-1" d="m610.4,285.59c-1.18-26-5.53-40.12-9.18-49.52-4.84-12.44-10.62-21.33-19.95-30.66-9.33-9.33-18.21-15.11-30.66-19.95-9.4-3.65-23.52-7.99-49.52-9.18-28.12-1.29-36.56-1.56-107.76-1.56s-79.64.28-107.76,1.56c-26,1.18-40.12,5.53-49.52,9.18-12.44,4.84-21.33,10.62-30.66,19.95-9.33,9.33-15.11,18.21-19.95,30.66-3.65,9.4-7.99,23.52-9.18,49.52-1.29,28.12-1.56,36.55-1.56,107.76s.28,79.64,1.56,107.76c1.18,26,5.53,40.12,9.18,49.52,4.84,12.45,10.62,21.33,19.95,30.66s18.21,15.11,30.66,19.95c9.4,3.65,23.52,8,49.52,9.18,28.12,1.29,36.55,1.56,107.76,1.56s79.65-.28,107.76-1.56c26-1.18,40.12-5.53,49.52-9.18,12.45-4.84,21.33-10.62,30.66-19.95s15.11-18.21,19.95-30.66c3.65-9.4,7.99-23.52,9.18-49.52,1.29-28.12,1.56-36.55,1.56-107.76s-.28-79.64-1.56-107.76Zm-217.07,244.69c-75.63,0-136.94-61.31-136.94-136.94s61.31-136.94,136.94-136.94,136.94,61.31,136.94,136.94-61.31,136.94-136.94,136.94Zm142.35-247.29c-17.67,0-32-14.33-32-32s14.33-32,32-32,32,14.33,32,32-14.33,32-32,32Z"/>
  </g>
</svg>