<?xml version="1.0" encoding="UTF-8"?>
<svg id="Layer_1" data-name="Layer 1" xmlns="http://www.w3.org/2000/svg" viewBox="0 0 1113.19 1113.19">
  <defs>
    <style>
      .cls-1 {
        fill: #dbd9d9;
      }
    </style>
  </defs>
  <path class="cls-1" d="m556.6,0C249.2,0,0,249.2,0,556.6s249.2,556.6,556.6,556.6,556.6-249.2,556.6-556.6S863.99,0,556.6,0Zm224,976.7c-.86,0-1.69.03-2.51.12-18.32.08-36.64.05-54.96.13-11.81.03-23.65.06-35.46.07-9.72.21-18.29-.12-25.54-7.28-59.75-75.03-118.5-150.97-178.02-226.19-2.27-2.87-6.5-3.2-9.2-.73-.06.06-.12.11-.19.17-11.06,10.72-22.64,20.9-33.34,31.97-13.98,14.47-11.04,15.65-11.82,33.34.1,18.36.08,36.73.16,55.08.17,28,.09,56.12.25,83.96,1.63,33.09-2.94,29.51-33.19,29.46-19.41,0-38.81.06-58.22.05-7.9.09-12.87.25-15.47-2.98-6.77-6.23-3.71-15.8-4.35-23.97,0-15.96-.02-31.93-.02-47.89-.07-177.61-.12-355.22-.18-532.83-.03-52.96-.03-105.94-.06-158.9,0-16.19-.01-32.39,0-48.59-.47-10.06-.99-25.84,12.93-25.21,21.56-.1,43.13-.12,64.69-.2,28.62.14,35.81-4.6,33.89,28.72.18,161.56.37,323.12.53,484.68,4.43-7.65,11.93-12.92,17.84-19.4,13.79-14.03,28.24-27.45,41.62-41.89,49.94-51.23,101.16-101.25,150.75-152.81,8.37-9.26,16.96-14.74,29.91-13.22,13.49-.1,26.98-.1,40.46-.12,18.73-.04,37.48-.17,56.21-.18,7.76-.06,14.45-.68,17.14,3.12,3.29,3.48,4.34,6.76,2.62,11.15-2.06,5.25-4.31,7.52-7.7,10.96-5.85,5.23-11.37,10.79-16.87,16.39-19.47,18.39-36.81,35.9-55.32,53.26-36.45,35.51-76.57,74.26-111.71,108.26-7.71,6.63-19.26,18.91-25.7,24.79-2.8,2.55-5.51,5.13-8.26,7.72-1.3,1.63-3.97,2.66-3.13,5.12,52.34,67.68,107.55,133.5,160.74,200.65,17,21.19,34.15,42.26,51.09,63.5,6.4,8.23,13.25,16.1,19.65,24.33.71.77,1.38,1.56,2,2.37,7.25,9.37.56,22.99-11.28,23Z"/>
</svg>