<?xml version="1.0" encoding="UTF-8"?>
<svg id="Layer_1" data-name="Layer 1" xmlns="http://www.w3.org/2000/svg" viewBox="0 0 786.66 786.66">
  <defs>
    <style>
      .cls-1 {
        fill: #dbd9d9;
      }
    </style>
  </defs>
  <path class="cls-1" d="m469.58,333.38c-25.12-.93-48.72,12.03-61.41,33.73h-.87v-28.54h-62.24v208.8h64.84v-103.29c0-27.24,5.17-53.62,38.94-53.62s33.72,31.17,33.72,55.38v101.54h64.84l.03-114.55c0-56.23-12.12-99.46-77.83-99.46Z"/>
  <path class="cls-1" d="m393.33,0C176.1,0,0,176.1,0,393.33s176.1,393.33,393.33,393.33,393.33-176.1,393.33-393.33S610.56,0,393.33,0Zm218.8,580.54c-.24,17.67-14.75,31.8-32.42,31.57H206.82c-17.63.19-32.08-13.94-32.29-31.57V206.11c.22-17.62,14.67-31.74,32.29-31.54h372.88v-.03c17.66-.23,32.17,13.88,32.42,31.54v374.46Z"/>
  <circle class="cls-1" cx="271.88" cy="272.41" r="37.63" transform="translate(-87.19 410.94) rotate(-66.15)"/>
  <rect class="cls-1" x="239.4" y="338.58" width="64.91" height="208.81"/>
</svg>