<?xml version="1.0" encoding="UTF-8"?>
<svg id="Layer_1" data-name="Layer 1" xmlns="http://www.w3.org/2000/svg" viewBox="0 0 982.76 982.76">
  <defs>
    <style>
      .cls-1 {
        opacity: .96;
      }

      .cls-1, .cls-2 {
        fill: #dbd9d9;
      }
    </style>
  </defs>
  <path class="cls-2" d="m491.38,0C220,0,0,220,0,491.38s220,491.38,491.38,491.38,491.38-220,491.38-491.38S762.77,0,491.38,0Zm339.81,663.2c-8.16,30.72-32.19,54.9-62.71,63.12-55.31,14.91-277.1,14.91-277.1,14.91,0,0-221.79,0-277.1-14.91-30.52-8.21-54.55-32.4-62.71-63.12-14.82-55.67-14.82-171.82-14.82-171.82,0,0,0-116.15,14.82-171.82,8.16-30.71,32.19-54.9,62.71-63.11,55.31-14.92,277.1-14.92,277.1-14.92,0,0,221.79,0,277.1,14.92,30.51,8.21,54.55,32.4,62.71,63.11h0c14.82,55.67,14.82,171.82,14.82,171.82,0,0,0,116.15-14.82,171.82Z"/>
  <path class="cls-1" d="m740.15,347.75h0c-5.77-9.99-18.55-13.42-28.55-7.65l-60.86,35.14c-6.37-4.56-13.65-8.06-21.85-10.46-11.18-3.28-23.93-4.92-38.24-4.92h-69.94v90.46l-60.53,34.95-30.22-125.4h-64.45l-52.11,210.15-63.15,36.46c-9.99,5.77-13.42,18.55-7.65,28.55h0c5.77,9.99,18.55,13.42,28.55,7.65l34.22-19.76h43.38l7.55-29.4,45-25.98h31.22l12.75,55.38h48.09l-22.96-95.28,50.32-29.05v124.33h69.94c14.32,0,27.07-1.66,38.24-4.92,11.18-3.29,20.66-8.57,28.43-15.86,7.77-7.26,13.79-16.69,18.03-28.22,4.24-11.53,6.61-25.56,7.12-42.08v-80.88c-.5-16.35-2.83-30.25-6.99-41.71l57.03-32.92c9.99-5.77,13.42-18.55,7.65-28.55Zm-368.09,175.31l24.76-106.37h.77l21.19,92.48-24.07,13.9h-22.64Zm198.93-118.77h17.46c3.84,0,7.4.25,10.7.73l-28.16,16.26v-16.98Zm61.19,52.46v69.23c0,19.69-3.82,33.32-11.47,41-7.65,7.65-18.41,11.47-32.26,11.47h-17.46v-108.92l59.28-34.23c1.27,6.14,1.91,13.29,1.91,21.44Z"/>
</svg>