<?xml version="1.0" encoding="UTF-8"?>
<svg id="Layer_1" data-name="Layer 1" xmlns="http://www.w3.org/2000/svg" viewBox="0 0 1113.2 1113.2">
  <defs>
    <style>
      .cls-1 {
        fill: #dbd9d9;
      }
    </style>
  </defs>
  <polygon class="cls-1" points="471.39 605.46 556.48 654.75 641.58 605.46 641.58 507.15 556.48 457.86 471.39 507.15 471.39 605.46"/>
  <path class="cls-1" d="m423.26,344.59c0-10.27,5.28-19.66,14.09-24.65l172.54-99.48c1.76-.88,4.11-2.35,5.28-2.93-29.34-24.35-66.02-37.56-104.17-37.56h0s0,0,0,0h0l.29-.29c-89.79.29-162.27,72.77-162.27,162.56v193.08l74.24,42.84v-233.57Z"/>
  <path class="cls-1" d="m471.39,451.7l202.17-116.79c8.83-4.99,19.63-4.99,28.46,0l172.54,99.77c1.47.88,3.81,2.05,4.99,2.93,6.46-37.27-.59-75.71-19.37-108.57h0c-44.9-77.76-144.08-104.46-221.83-59.57l-166.96,96.54v85.68Z"/>
  <path class="cls-1" d="m267.16,629.52l166.67,96.25,74.53-43.13-201.88-116.49c-8.8-5.28-14.09-14.38-14.09-24.65v-205.11c-35.8,13.2-65.44,38.44-84.51,71.3h0c-44.9,77.76-18.19,176.94,59.27,221.83Z"/>
  <path class="cls-1" d="m556.6,0C249.2,0,0,249.2,0,556.6s249.2,556.6,556.6,556.6,556.6-249.2,556.6-556.6S863.99,0,556.6,0Zm253.7,838.73c-29.34,90.08-113.56,151.12-208.34,151.12-62.21.29-121.48-26.41-162.56-72.77-93.02,19.66-188.09-22.59-235.33-105.05-31.4-53.4-38.15-117.96-18.49-176.94-63.67-70.42-74.53-173.71-26.99-255.87,30.81-53.99,83.34-92.14,144.37-104.76,29.34-90.08,113.56-151.12,208.34-151.12,62.16-.3,121.47,26.09,162.86,72.48,92.73-19.66,187.8,22.59,235.04,104.76,31.4,53.7,38.15,118.25,18.49,177.23v.29c63.68,70.42,74.53,173.71,26.7,255.87-30.52,53.99-83.04,92.14-144.08,104.75Z"/>
  <path class="cls-1" d="m846.1,483.39l-166.96-96.24-74.24,42.84,202.17,116.79c8.8,4.99,14.08,14.38,14.08,24.65v205.11c35.5-12.91,65.44-38.15,84.51-71.01h0s-.29-.29-.29-.29c44.9-77.76,18.49-176.94-59.27-221.84Z"/>
  <path class="cls-1" d="m690.29,768.61c.29,10.27-5.28,19.66-14.08,24.65l-172.54,99.47c-1.73,1.03-3.49,2.01-5.28,2.93,29.05,24.36,66.02,37.56,103.88,37.56h0s0,.29,0,.29c89.5,0,162.27-72.77,162.27-162.56v-192.79l-74.24-42.84v233.28Z"/>
  <path class="cls-1" d="m641.87,661.5l-201.88,116.79c-8.83,4.99-19.63,4.99-28.46,0l-172.54-99.77c-1.47-.88-3.81-2.05-4.99-2.93-6.46,37.27.29,76,19.37,108.57h0s0,0,0,0h-.29c44.89,77.47,144.08,103.88,221.83,59.27l166.96-96.25v-85.68Z"/>
</svg>