<?xml version="1.0" encoding="UTF-8"?>
<svg id="Layer_1" data-name="Layer 1" xmlns="http://www.w3.org/2000/svg" viewBox="0 0 532.46 533.33">
  <defs>
    <style>
      .cls-1 {
        fill: #dbd9d9;
      }
    </style>
  </defs>
  <path class="cls-1" d="m266.45,0C119.3,0,0,119.3,0,266.45c0,112.94,70.18,209.43,169.3,248.25-2.41-21.05-4.39-53.51.88-76.54,4.82-20.83,31.14-132.46,31.14-132.46,0,0-7.89-16.01-7.89-39.47,0-37.06,21.49-64.69,48.25-64.69,22.81,0,33.77,17.11,33.77,37.5,0,22.81-14.47,57.02-22.15,88.82-6.36,26.54,13.38,48.25,39.47,48.25,47.37,0,83.77-50,83.77-121.93,0-63.82-45.83-108.33-111.4-108.33-75.88,0-120.39,56.8-120.39,115.57,0,22.81,8.77,47.37,19.74,60.75,2.19,2.63,2.41,5.04,1.75,7.68-1.97,8.33-6.58,26.54-7.46,30.26-1.1,4.82-3.95,5.92-8.99,3.51-33.33-15.57-54.17-64.04-54.17-103.29,0-83.99,60.96-161.18,176.1-161.18,92.32,0,164.25,65.79,164.25,153.95s-57.89,165.79-138.16,165.79c-26.97,0-52.41-14.04-60.96-30.7,0,0-13.38,50.88-16.67,63.38-5.92,23.25-22.15,52.19-33.11,69.96,25,7.68,51.32,11.84,78.95,11.84,147.15,0,266.45-119.3,266.45-266.45C532.89,119.3,413.6,0,266.45,0Z"/>
</svg>