<?xml version="1.0" encoding="UTF-8"?>
<svg id="Layer_1" data-name="Layer 1" xmlns="http://www.w3.org/2000/svg" viewBox="0 0 511.7 504.41">
  <path d="m193.92.37c-49.3,2.5-97.1,24.2-133.4,60.5C31.02,90.37,10.92,128.27,3.52,168.37c-16.8,91,27.7,180.7,110.4,222.8,45.4,23.1,99.4,28.4,148.9,14.5,17.7-5,42.9-16.3,55.7-25.2l5.9-4,60.5,60.2c54.6,54.5,61.1,60.6,67,63.5,30.5,14.7,65.1-10.9,59.1-43.7q-2.4-13-68-78.6l-60.8-60.8,8.2-16.1c13.8-27.2,20.1-49.9,22.6-80.2,4.4-55-15.4-111.9-53.5-153.3-19.3-21.1-40.4-36.5-66.1-48.4-15.4-7.1-21.1-9.2-35.4-12.8C236.62.87,217.92-.83,193.92.37Zm35.5,68.4c55.5,9.1,100.5,51.2,113.3,106,10.8,46.1-2.5,94.3-35.3,128.4-27,28-62.2,43.1-100.7,43.1s-72.1-14.6-98.7-41.1c-19.6-19.7-32.3-43.3-38.3-71.2-3.1-14.6-3.1-39.9.1-54.6,8.2-38.4,29.6-69.6,62.1-90.6,16.6-10.8,34.4-17.2,57-20.8,6.6-1.1,32.3-.6,40.5.8Z"/>
</svg>