<?xml version="1.0" encoding="UTF-8"?>
<svg id="Layer_1" data-name="Layer 1" xmlns="http://www.w3.org/2000/svg" viewBox="0 0 1900 1900">
  <defs>
    <style>
      .cls-1 {
        fill: #dbd9d9;
      }
    </style>
  </defs>
  <path class="cls-1" d="m950,0C425.33,0,0,425.33,0,950s425.33,950,950,950,950-425.33,950-950S1474.67,0,950,0Zm362.9,1419.39c-91.46,69.97-211.44,104.96-360.04,104.96-271.6,0-439.24-113.19-502.92-339.61l317.58-57.14c26.65,89.81,95.23,134.71,205.74,134.71,85.99,0,129-22.87,129-68.58,0-23.97-9.96-42.58-29.8-55.92-19.88-13.34-55.41-25.2-106.57-35.49-195.43-37.48-320.9-86.39-376.37-146.83-55.52-60.44-83.27-131.49-83.27-213.15,0-105.07,39.88-192.45,119.61-262.15,79.74-69.68,194.45-104.54,344.13-104.54,226.97,0,376.92,91.18,449.85,273.5l-283.32,85.74c-29.37-74.57-88.97-111.86-178.78-111.86-74.57,0-111.86,23.15-111.86,69.4,0,20.68,8.44,36.74,25.32,48.18,16.86,11.42,49.53,22.28,97.98,32.6,133.36,28.19,228.07,53.16,284.16,74.83,56.09,21.71,102.89,58.83,140.41,111.4,37.52,52.54,56.3,114.52,56.3,185.85,0,112.77-45.75,204.14-137.16,274.11Z"/>
</svg>