<?xml version="1.0" encoding="UTF-8"?>
<svg id="Layer_1" data-name="Layer 1" xmlns="http://www.w3.org/2000/svg" viewBox="0 0 1113.2 1113.2">
  <defs>
    <style>
      .cls-1 {
        fill: #dbd9d9;
      }
    </style>
  </defs>
  <path class="cls-1" d="m804.97,470.06c-68.39,0-90.38,65.97-97.52,105.13l-.19,1.3-7.79,36.93c32.11,26.07,67.74,42.13,105.6,42.13,51.22,0,92.88-41.48,92.79-92.6,0-51.22-41.66-92.88-92.88-92.88Z"/>
  <path class="cls-1" d="m556.6,0C249.2,0,0,249.2,0,556.6s249.2,556.6,556.6,556.6,556.6-249.2,556.6-556.6S863.99,0,556.6,0Zm248.18,749.64c-48.07,0-89.91-14.66-126.47-38.04l-41.66,195.97h-95.95l57.44-270.39c-27.19-33.78-49.46-72.38-67.74-110.42v41.01c0,99.94-81.28,182.15-181.31,182.15s-181.31-82.12-181.31-182.15v-244.32h93.72v244.6c0,48.34,39.16,87.5,87.5,87.5s87.5-39.16,87.5-87.5v-244.32h93.9c18.56,63.65,50.39,139.19,92.23,202.19,27.65-93.25,95.11-149.86,182.43-149.86,102.9,0,186.42,83.7,186.32,186.32,0,103.09-83.7,187.25-186.6,187.25Z"/>
</svg>