<?xml version="1.0" encoding="UTF-8"?>
<svg id="Layer_1" data-name="Layer 1" xmlns="http://www.w3.org/2000/svg" viewBox="0 0 982.77 982.77">
  <defs>
    <style>
      .cls-1 {
        fill: #dbd9d9;
      }
    </style>
  </defs>
  <polygon class="cls-1" points="418.84 596.84 604.22 491.39 418.84 385.93 418.84 596.84"/>
  <path class="cls-1" d="m491.38,0C220,0,0,220,0,491.38s220,491.38,491.38,491.38,491.38-220,491.38-491.38S762.77,0,491.38,0Zm339.81,663.2c-8.16,30.72-32.19,54.9-62.71,63.12-55.31,14.91-277.1,14.91-277.1,14.91,0,0-221.79,0-277.1-14.91-30.52-8.21-54.55-32.4-62.71-63.12-14.82-55.67-14.82-171.82-14.82-171.82,0,0,0-116.15,14.82-171.82,8.16-30.71,32.19-54.9,62.71-63.11,55.31-14.92,277.1-14.92,277.1-14.92,0,0,221.79,0,277.1,14.92,30.51,8.21,54.55,32.4,62.71,63.11h0c14.82,55.67,14.82,171.82,14.82,171.82,0,0,0,116.15-14.82,171.82Z"/>
</svg>